<?xml version="1.0"?>
<svg xmlns="http://www.w3.org/2000/svg" viewBox="0 0 50 50">
    <path style="line-height:normal;text-indent:0;text-align:start;text-decoration-line:none;text-decoration-style:solid;text-decoration-color:#000;text-transform:none;block-progression:tb;isolation:auto;mix-blend-mode:normal" d="M 3 7 L 3 39 L 26 39 L 26 37 L 5 37 L 5 34.978516 L 17.806641 24.851562 C 18.845536 25.756915 20.75706 27.422974 20.998047 27.632812 C 22.522932 28.959452 24.139597 29.294922 25.175781 29.294922 C 26.211154 29.294922 27.829074 28.960069 29.353516 27.632812 C 30.537601 26.602667 42.179339 16.454698 45 13.996094 L 45 31 L 47 33 L 47 31 L 47 7 L 3 7 z M 5 9 L 45 9 L 45 11.34375 C 43.966446 12.244751 29.313382 25.01805 28.041016 26.125 C 26.921457 27.099744 25.782409 27.294922 25.175781 27.294922 C 24.570237 27.294922 23.433128 27.097274 22.3125 26.123047 L 22.310547 26.123047 C 21.00723 24.988144 5.4430363 11.423247 5 11.037109 L 5 9 z M 5 13.689453 C 6.6943943 15.16626 11.718976 19.546396 16.273438 23.515625 L 5 32.429688 L 5 13.689453 z M 38.990234 29.990234 A 1.0001 1.0001 0 0 0 38.292969 31.707031 L 43.585938 37 L 30 37 L 30 39 L 43.585938 39 L 38.292969 44.292969 A 1.0001 1.0001 0 1 0 39.707031 45.707031 L 47.414062 38 L 39.707031 30.292969 A 1.0001 1.0001 0 0 0 38.990234 29.990234 z" font-weight="400" font-family="sans-serif" white-space="normal" overflow="visible"/>
</svg>
